<svg width="126" height="31" xmlns="http://www.w3.org/2000/svg"><g fill="#FFF" fill-rule="evenodd"><text font-family=".AppleSystemUIFont" font-size="16" letter-spacing=".267"><tspan x="41" y="16">METACARD</tspan></text><g fill-rule="nonzero"><path d="M2.818 2.818v25.364h25.364V2.818H2.818zM1.41 0h28.182C30.369 0 31 .63 31 1.41v28.18c0 .78-.63 1.41-1.41 1.41H1.41A1.41 1.41 0 0 1 0 29.59V1.41C0 .63.63 0 1.41 0z"/><path d="M20.432 10.568H8.455a1.41 1.41 0 1 1 0-2.818H21.84c.778 0 1.409.63 1.409 1.41v13.385a1.41 1.41 0 1 1-2.818 0V10.568z"/><path d="M19.435 9.572a1.41 1.41 0 0 1 1.993 1.993L9.451 23.542a1.41 1.41 0 0 1-1.993-1.993L19.435 9.572z"/></g></g></svg>